<mxfile host="app.diagrams.net" agent="Mozilla/5.0 (Windows NT 10.0; Win64; x64; rv:136.0) Gecko/20100101 Firefox/136.0" version="26.1.1">
  <diagram name="第 1 页" id="CfyCc19zAq1EiHy3i6xN">
    <mxGraphModel dx="1050" dy="538" grid="1" gridSize="10" guides="1" tooltips="1" connect="1" arrows="1" fold="1" page="1" pageScale="1" pageWidth="827" pageHeight="1169" math="0" shadow="0">
      <root>
        <mxCell id="0" />
        <mxCell id="1" parent="0" />
        <mxCell id="m_UP_izuxUmIqxNckfhg-3" value="" style="edgeStyle=orthogonalEdgeStyle;rounded=0;orthogonalLoop=1;jettySize=auto;html=1;" edge="1" parent="1" source="m_UP_izuxUmIqxNckfhg-1" target="m_UP_izuxUmIqxNckfhg-2">
          <mxGeometry relative="1" as="geometry" />
        </mxCell>
        <mxCell id="m_UP_izuxUmIqxNckfhg-1" value="初始化点位权重矩阵" style="rounded=0;whiteSpace=wrap;html=1;" vertex="1" parent="1">
          <mxGeometry x="260" y="20" width="120" height="60" as="geometry" />
        </mxCell>
        <mxCell id="m_UP_izuxUmIqxNckfhg-5" value="" style="edgeStyle=orthogonalEdgeStyle;rounded=0;orthogonalLoop=1;jettySize=auto;html=1;" edge="1" parent="1" source="m_UP_izuxUmIqxNckfhg-2" target="m_UP_izuxUmIqxNckfhg-4">
          <mxGeometry relative="1" as="geometry" />
        </mxCell>
        <mxCell id="m_UP_izuxUmIqxNckfhg-2" value="进行全覆盖" style="whiteSpace=wrap;html=1;rounded=0;" vertex="1" parent="1">
          <mxGeometry x="260" y="110" width="120" height="60" as="geometry" />
        </mxCell>
        <mxCell id="m_UP_izuxUmIqxNckfhg-7" value="" style="edgeStyle=orthogonalEdgeStyle;rounded=0;orthogonalLoop=1;jettySize=auto;html=1;" edge="1" parent="1" source="m_UP_izuxUmIqxNckfhg-4" target="m_UP_izuxUmIqxNckfhg-6">
          <mxGeometry relative="1" as="geometry" />
        </mxCell>
        <mxCell id="m_UP_izuxUmIqxNckfhg-22" value="否" style="edgeLabel;html=1;align=center;verticalAlign=middle;resizable=0;points=[];" vertex="1" connectable="0" parent="m_UP_izuxUmIqxNckfhg-7">
          <mxGeometry x="-0.68" y="1" relative="1" as="geometry">
            <mxPoint as="offset" />
          </mxGeometry>
        </mxCell>
        <mxCell id="m_UP_izuxUmIqxNckfhg-11" value="" style="edgeStyle=orthogonalEdgeStyle;rounded=0;orthogonalLoop=1;jettySize=auto;html=1;" edge="1" parent="1" source="m_UP_izuxUmIqxNckfhg-4" target="m_UP_izuxUmIqxNckfhg-10">
          <mxGeometry relative="1" as="geometry" />
        </mxCell>
        <mxCell id="m_UP_izuxUmIqxNckfhg-21" value="是" style="edgeLabel;html=1;align=center;verticalAlign=middle;resizable=0;points=[];" vertex="1" connectable="0" parent="m_UP_izuxUmIqxNckfhg-11">
          <mxGeometry x="0.0667" relative="1" as="geometry">
            <mxPoint as="offset" />
          </mxGeometry>
        </mxCell>
        <mxCell id="m_UP_izuxUmIqxNckfhg-4" value="是否发现新的感染点" style="rhombus;whiteSpace=wrap;html=1;rounded=0;" vertex="1" parent="1">
          <mxGeometry x="235" y="200" width="170" height="80" as="geometry" />
        </mxCell>
        <mxCell id="m_UP_izuxUmIqxNckfhg-14" value="" style="edgeStyle=orthogonalEdgeStyle;rounded=0;orthogonalLoop=1;jettySize=auto;html=1;" edge="1" parent="1" source="m_UP_izuxUmIqxNckfhg-6" target="m_UP_izuxUmIqxNckfhg-13">
          <mxGeometry relative="1" as="geometry" />
        </mxCell>
        <mxCell id="m_UP_izuxUmIqxNckfhg-15" value="否" style="edgeLabel;html=1;align=center;verticalAlign=middle;resizable=0;points=[];" vertex="1" connectable="0" parent="m_UP_izuxUmIqxNckfhg-14">
          <mxGeometry x="-0.0476" relative="1" as="geometry">
            <mxPoint as="offset" />
          </mxGeometry>
        </mxCell>
        <mxCell id="m_UP_izuxUmIqxNckfhg-19" value="" style="edgeStyle=orthogonalEdgeStyle;rounded=0;orthogonalLoop=1;jettySize=auto;html=1;" edge="1" parent="1" source="m_UP_izuxUmIqxNckfhg-6" target="m_UP_izuxUmIqxNckfhg-18">
          <mxGeometry relative="1" as="geometry" />
        </mxCell>
        <mxCell id="m_UP_izuxUmIqxNckfhg-20" value="被治理" style="edgeLabel;html=1;align=center;verticalAlign=middle;resizable=0;points=[];" vertex="1" connectable="0" parent="m_UP_izuxUmIqxNckfhg-19">
          <mxGeometry x="-0.04" y="-3" relative="1" as="geometry">
            <mxPoint as="offset" />
          </mxGeometry>
        </mxCell>
        <mxCell id="m_UP_izuxUmIqxNckfhg-6" value="旧的感染点是否被治理" style="rhombus;whiteSpace=wrap;html=1;rounded=0;" vertex="1" parent="1">
          <mxGeometry x="235" y="310" width="170" height="80" as="geometry" />
        </mxCell>
        <mxCell id="m_UP_izuxUmIqxNckfhg-12" style="edgeStyle=orthogonalEdgeStyle;rounded=0;orthogonalLoop=1;jettySize=auto;html=1;" edge="1" parent="1" source="m_UP_izuxUmIqxNckfhg-10" target="m_UP_izuxUmIqxNckfhg-6">
          <mxGeometry relative="1" as="geometry">
            <Array as="points">
              <mxPoint x="570" y="350" />
            </Array>
          </mxGeometry>
        </mxCell>
        <mxCell id="m_UP_izuxUmIqxNckfhg-10" value="增加该点位的权重值" style="whiteSpace=wrap;html=1;rounded=0;" vertex="1" parent="1">
          <mxGeometry x="510" y="210" width="120" height="60" as="geometry" />
        </mxCell>
        <mxCell id="m_UP_izuxUmIqxNckfhg-35" style="edgeStyle=orthogonalEdgeStyle;rounded=0;orthogonalLoop=1;jettySize=auto;html=1;" edge="1" parent="1" source="m_UP_izuxUmIqxNckfhg-13" target="m_UP_izuxUmIqxNckfhg-26">
          <mxGeometry relative="1" as="geometry">
            <Array as="points">
              <mxPoint x="70" y="570" />
            </Array>
          </mxGeometry>
        </mxCell>
        <mxCell id="m_UP_izuxUmIqxNckfhg-13" value="继续增加该点的权重，扩大感染区的范围，套入模型" style="whiteSpace=wrap;html=1;rounded=0;" vertex="1" parent="1">
          <mxGeometry x="10" y="320" width="120" height="60" as="geometry" />
        </mxCell>
        <mxCell id="m_UP_izuxUmIqxNckfhg-25" value="" style="edgeStyle=orthogonalEdgeStyle;rounded=0;orthogonalLoop=1;jettySize=auto;html=1;entryX=0.5;entryY=0;entryDx=0;entryDy=0;" edge="1" parent="1" source="m_UP_izuxUmIqxNckfhg-18" target="m_UP_izuxUmIqxNckfhg-26">
          <mxGeometry relative="1" as="geometry">
            <mxPoint x="316.29999999999995" y="530.0246153846153" as="targetPoint" />
          </mxGeometry>
        </mxCell>
        <mxCell id="m_UP_izuxUmIqxNckfhg-18" value="降低该点的权重，套入松材线虫被治理的模型，计算复发的概率" style="whiteSpace=wrap;html=1;rounded=0;" vertex="1" parent="1">
          <mxGeometry x="260" y="440" width="120" height="60" as="geometry" />
        </mxCell>
        <mxCell id="m_UP_izuxUmIqxNckfhg-29" style="edgeStyle=orthogonalEdgeStyle;rounded=0;orthogonalLoop=1;jettySize=auto;html=1;" edge="1" parent="1" source="m_UP_izuxUmIqxNckfhg-26" target="m_UP_izuxUmIqxNckfhg-2">
          <mxGeometry relative="1" as="geometry">
            <Array as="points">
              <mxPoint x="710" y="570" />
              <mxPoint x="710" y="140" />
            </Array>
          </mxGeometry>
        </mxCell>
        <mxCell id="m_UP_izuxUmIqxNckfhg-30" value="覆盖完成" style="edgeLabel;html=1;align=center;verticalAlign=middle;resizable=0;points=[];" vertex="1" connectable="0" parent="m_UP_izuxUmIqxNckfhg-29">
          <mxGeometry x="-0.1023" y="1" relative="1" as="geometry">
            <mxPoint as="offset" />
          </mxGeometry>
        </mxCell>
        <mxCell id="m_UP_izuxUmIqxNckfhg-32" value="" style="edgeStyle=orthogonalEdgeStyle;rounded=0;orthogonalLoop=1;jettySize=auto;html=1;" edge="1" parent="1" source="m_UP_izuxUmIqxNckfhg-26" target="m_UP_izuxUmIqxNckfhg-31">
          <mxGeometry relative="1" as="geometry" />
        </mxCell>
        <mxCell id="m_UP_izuxUmIqxNckfhg-26" value="全覆盖是否完成" style="rhombus;whiteSpace=wrap;html=1;rounded=0;" vertex="1" parent="1">
          <mxGeometry x="235" y="530" width="170" height="80" as="geometry" />
        </mxCell>
        <mxCell id="m_UP_izuxUmIqxNckfhg-31" value="监测任务结束" style="whiteSpace=wrap;html=1;rounded=0;" vertex="1" parent="1">
          <mxGeometry x="260" y="650" width="120" height="60" as="geometry" />
        </mxCell>
      </root>
    </mxGraphModel>
  </diagram>
</mxfile>
